<svg width="30" height="30" viewBox="0 0 30 30" fill="none" xmlns="http://www.w3.org/2000/svg">
<path d="M15.5865 3.77848C17.2912 5.48312 17.2912 8.24688 15.5865 9.95152C13.8819 11.6562 11.1181 11.6562 9.41349 9.95152C7.70885 8.24688 7.70885 5.48312 9.41349 3.77848C11.1181 2.07384 13.8819 2.07384 15.5865 3.77848" stroke="#BABABA" stroke-width="1.5" stroke-linecap="round" stroke-linejoin="round"/>
<path d="M17.9537 15.995C16.33 15.3463 14.425 14.9888 12.5 14.9888C7.44 14.9888 2.5 17.4475 2.5 21.2288V22.4788C2.5 23.1688 3.06 23.7288 3.75 23.7288H15.5163" stroke="#BABABA" stroke-width="1.5" stroke-linecap="round" stroke-linejoin="round"/>
<path d="M21.25 27.5C17.7988 27.5 15 24.7025 15 21.25C15 17.87 17.875 14.9963 21.255 15C24.705 15.0025 27.5 17.8 27.5 21.25C27.5 24.7013 24.7025 27.5 21.25 27.5" stroke="#BABABA" stroke-width="1.5" stroke-linecap="round" stroke-linejoin="round"/>
<path d="M19.04 22.0425L21.25 19.8325L23.46 22.0425" stroke="#BABABA" stroke-width="1.5" stroke-linecap="round" stroke-linejoin="round"/>
</svg>
