<svg width="25" height="24" viewBox="0 0 25 24" fill="none" xmlns="http://www.w3.org/2000/svg">
<path d="M24.5779 5.5V11.627C23.6557 11.07 22.566 10.883 21.5343 11.085V9H3.2723V21H11.3887V24H0.228638V5.5C0.228638 3.57 1.82149 2 3.77957 2H6.31596V0H9.35961V2H15.4469V0H18.4906V2H21.027C22.9851 2 24.5779 3.57 24.5779 5.5ZM20.7987 13.639L13.4178 20.914V24H16.5487L23.9296 16.725C24.794 15.873 24.794 14.491 23.9296 13.639C23.0652 12.787 21.6631 12.787 20.7987 13.639ZM18.4906 13.086V11H6.31596V14H17.5633L18.4906 13.086ZM6.31596 19H12.4905L13.4178 18.086V16H6.31596V19Z" fill="#BABABA"/>
</svg>
