<svg width="24" height="24" viewBox="0 0 24 24" fill="none" xmlns="http://www.w3.org/2000/svg">
<path fill-rule="evenodd" clip-rule="evenodd" d="M19.8527 15.7178L19.8554 15.7203C19.991 15.8463 20.0356 16.0424 19.968 16.2146C19.9003 16.3868 19.7341 16.5 19.549 16.5H4.45085C4.26585 16.5 4.09971 16.3868 4.03205 16.2146C3.96439 16.0424 4.009 15.8464 4.1445 15.7204V15.7204C5.64574 14.3251 6.49863 12.368 6.49863 10.3185V8.5C6.49863 5.46243 8.96106 3 11.9986 3V3C13.4573 3 14.8563 3.57946 15.8877 4.61091C16.9192 5.64236 17.4986 7.04131 17.4986 8.5V10.316C17.4986 12.3655 18.3515 14.3226 19.8527 15.7178V15.7178Z" stroke="#33333D" stroke-width="1.5" stroke-linecap="round" stroke-linejoin="round"/>
<path d="M10 20H14" stroke="#33333D" stroke-width="1.5" stroke-linecap="round" stroke-linejoin="round"/>
<path d="M18.7078 3.29224C19.4886 4.29265 20.0342 5.45603 20.304 6.69606" stroke="#33333D" stroke-width="1.5" stroke-linecap="round" stroke-linejoin="round"/>
<path d="M5.29216 3.29224C4.51136 4.29265 3.96581 5.45603 3.69598 6.69606" stroke="#33333D" stroke-width="1.5" stroke-linecap="round" stroke-linejoin="round"/>
</svg>
