<svg width="24" height="24" viewBox="0 0 24 24" fill="none" xmlns="http://www.w3.org/2000/svg">
<g clip-path="url(#clip0_0_1580)">
<path d="M20.5 9H13.5C11.57 9 10 10.57 10 12.5V24H24V12.5C24 10.57 22.43 9 20.5 9ZM21 21H13V12.5C13 12.22 13.22 12 13.5 12H20.5C20.78 12 21 12.22 21 12.5V21ZM15 14H19V17H15V14ZM3 5.5V21H8V24H0V5.5C0 3.57 1.57 2 3.5 2H5.85C6.41 0.82 7.61 0 9 0H11C12.39 0 13.59 0.82 14.15 2H16.5C18.43 2 20 3.57 20 5.5V7H17V5.5C17 5.22 16.78 5 16.5 5H14.15C13.59 6.18 12.39 7 11 7H9C7.61 7 6.41 6.18 5.85 5H3.5C3.22 5 3 5.22 3 5.5Z" fill="#BABABA"/>
</g>
<defs>
<clipPath id="clip0_0_1580">
<rect width="24" height="24" fill="white"/>
</clipPath>
</defs>
</svg>
