<svg width="24" height="24" viewBox="0 0 24 24" fill="none" xmlns="http://www.w3.org/2000/svg">
<path d="M4.24873 11.0443C4.08947 11.2036 4 11.4196 4 11.6449C4 11.8702 4.08947 12.0862 4.24873 12.2455L9.05453 17.0513C9.21476 17.2061 9.42935 17.2917 9.65209 17.2898C9.87484 17.2878 10.0879 17.1985 10.2454 17.041C10.4029 16.8835 10.4923 16.6704 10.4942 16.4476C10.4961 16.2249 10.4105 16.0103 10.2558 15.8501L6.90012 12.4944H18.1505C18.3758 12.4944 18.5919 12.4049 18.7512 12.2456C18.9105 12.0863 19 11.8702 19 11.6449C19 11.4196 18.9105 11.2035 18.7512 11.0442C18.5919 10.8849 18.3758 10.7954 18.1505 10.7954H6.90012L10.2558 7.43971C10.4105 7.27949 10.4961 7.06489 10.4942 6.84215C10.4923 6.61941 10.4029 6.40633 10.2454 6.24882C10.0879 6.09131 9.87484 6.00197 9.65209 6.00003C9.42935 5.9981 9.21476 6.08372 9.05453 6.23847L4.24873 11.0443Z" fill="#33333D"/>
</svg>
