<svg width="16" height="16" viewBox="0 0 16 16" fill="none" xmlns="http://www.w3.org/2000/svg">
<path fill-rule="evenodd" clip-rule="evenodd" d="M7.77321 14.5784C3.94087 14.5784 0.82074 11.4583 0.82074 7.62596C0.82074 3.79362 3.94087 0.673492 7.77321 0.673492C11.6055 0.673492 14.7257 3.79362 14.7257 7.62596C14.7257 11.4583 11.6055 14.5784 7.77321 14.5784ZM7.77329 1.69101C4.49715 1.69101 1.83826 4.35669 1.83826 7.62604C1.83826 10.8954 4.49715 13.5611 7.77329 13.5611C11.0494 13.5611 13.7083 10.8954 13.7083 7.62604C13.7083 4.35669 11.0494 1.69101 7.77329 1.69101Z" fill="#809FB8"/>
<path d="M14.7671 15.2542C14.6382 15.2542 14.5094 15.2067 14.4076 15.105L12.3727 13.0701C12.176 12.8734 12.176 12.5478 12.3727 12.3511C12.5695 12.1544 12.895 12.1544 13.0917 12.3511L15.1266 14.386C15.3233 14.5827 15.3233 14.9083 15.1266 15.105C15.0249 15.2067 14.896 15.2542 14.7671 15.2542Z" fill="#809FB8"/>
</svg>
