<svg width="24" height="24" viewBox="0 0 24 24" fill="none" xmlns="http://www.w3.org/2000/svg">
<g clip-path="url(#clip0_0_1574)">
<path d="M21 13V5.5C21 3.57 19.43 2 17.5 2H6.49999C4.56999 2 2.99999 3.57 2.99999 5.5V13C1.34999 13 -7.62939e-06 14.35 -7.62939e-06 16V22H24V16C24 14.35 22.65 13 21 13ZM5.99999 5.5C5.99999 5.22 6.21999 5 6.49999 5H17.5C17.78 5 18 5.22 18 5.5V17H5.99999V5.5ZM16.06 9.06L14.12 11L16.06 12.94L13.94 15.06L12 13.12L10.06 15.06L7.93999 12.94L9.87999 11L7.93999 9.06L10.06 6.94L12 8.88L13.94 6.94L16.06 9.06Z" fill="#BABABA"/>
</g>
<defs>
<clipPath id="clip0_0_1574">
<rect width="24" height="24" fill="white"/>
</clipPath>
</defs>
</svg>
